<svg version="1.1" xmlns="http://www.w3.org/2000/svg" xmlns:xlink="http://www.w3.org/1999/xlink" width="149.51841" height="70.82429" viewBox="0,0,149.51841,70.82429"><g transform="translate(-164.10702,-133.71469)"><g data-paper-data="{&quot;isPaintingLayer&quot;:true}" fill-rule="nonzero" stroke-linecap="butt" stroke-linejoin="miter" stroke-miterlimit="10" stroke-dasharray="" stroke-dashoffset="0" style="mix-blend-mode: normal"><path d="M166.37456,194.74593v-29.98566l37.38476,-3.31421v28.40746z" data-paper-data="{&quot;index&quot;:null}" fill="#131313" stroke="none" stroke-width="0"/><path d="M179.66593,204.53898v-29.98566l37.38476,-3.3142v28.40746z" data-paper-data="{&quot;index&quot;:null}" fill="#171717" stroke="none" stroke-width="0"/><path d="M203.59905,172.73012l0.04715,-11.26363l13.29368,9.77905z" data-paper-data="{&quot;index&quot;:null}" fill="#2f2f2f" stroke="none" stroke-width="0"/><path d="M166.40665,194.78188l0.05217,-29.89393l13.39655,9.75017l-0.16639,29.88467z" data-paper-data="{&quot;index&quot;:null}" fill="#2f2f2f" stroke="none" stroke-width="0"/><text transform="translate(227.56351,193.2303) scale(0.97362,0.85066)" font-size="40" xml:space="preserve" fill="#171717" fill-rule="nonzero" stroke="#000000" stroke-width="4" stroke-linecap="butt" stroke-linejoin="miter" stroke-miterlimit="10" stroke-dasharray="" stroke-dashoffset="0" font-family="&quot;Microsoft YaHei&quot;, &quot;微软雅黑&quot;, STXihei, &quot;华文细黑&quot;" font-weight="normal" text-anchor="start" style="mix-blend-mode: normal"><tspan x="0" dy="0">JDM</tspan></text><path d="M164.10702,140.19542c0,0 0,-2.85719 0,-4.03469c0,-0.91683 1.83933,-2.44604 5.1037,-2.44604c24.15332,0 126.32246,0 138.69374,0c2.41029,0 4.23596,1.52921 4.23596,2.44604c0,1.1775 0,4.03469 0,4.03469z" fill="#338dff" stroke="none" stroke-width="0"/></g></g></svg>