<svg version="1.1" xmlns="http://www.w3.org/2000/svg" xmlns:xlink="http://www.w3.org/1999/xlink" width="101.61393" height="88.26597" viewBox="0,0,101.61393,88.26597"><g transform="translate(-189.19303,-134.96408)"><g data-paper-data="{&quot;isPaintingLayer&quot;:true}" fill-rule="nonzero" stroke-linecap="butt" stroke-linejoin="miter" stroke-miterlimit="10" stroke-dasharray="" stroke-dashoffset="0" style="mix-blend-mode: normal"><path d="M215.86389,193.76568v-56.99573l74.68701,6.64951v60.16217z" fill="#66278a" stroke="none" stroke-width="0"/><path d="M189.19656,213.41411v-56.99573l75.00745,6.6495v60.16217z" fill="#792789" stroke="none" stroke-width="0"/><path d="M189.19303,156.43124l26.67197,-19.62034l0.0946,22.59896z" fill="#9b54a9" stroke="none" stroke-width="0"/><path d="M264.15776,223.19755l-0.33384,-59.95956l26.87837,-19.56238l0.10467,59.97813z" data-paper-data="{&quot;index&quot;:null}" fill="#9b54a9" stroke="none" stroke-width="0"/><path d="M213.6322,198.85385v-14.78103l18.42832,-1.63369v14.00308z" data-paper-data="{&quot;index&quot;:null}" fill="#131313" stroke="none" stroke-width="0"/><path d="M220.18401,203.6812v-14.78103l18.42832,-1.63369v14.00308z" data-paper-data="{&quot;index&quot;:null}" fill="#171717" stroke="none" stroke-width="0"/><path d="M232.03701,188.00145l0.02324,-5.55226l6.55294,4.82045z" data-paper-data="{&quot;index&quot;:null}" fill="#2f2f2f" stroke="none" stroke-width="0"/><path d="M213.64804,198.87157l0.02572,-14.73582l6.60365,4.80621l-0.08202,14.73125z" data-paper-data="{&quot;index&quot;:null}" fill="#2f2f2f" stroke="none" stroke-width="0"/><text transform="translate(249.50579,175.47668) scale(0.93347,0.93347)" font-size="40" xml:space="preserve" fill="#ffffff" fill-rule="nonzero" stroke="#ffffff" stroke-width="2" stroke-linecap="butt" stroke-linejoin="miter" stroke-miterlimit="10" stroke-dasharray="" stroke-dashoffset="0" font-family="&quot;Microsoft YaHei&quot;, &quot;微软雅黑&quot;, STXihei, &quot;华文细黑&quot;" font-weight="normal" text-anchor="start" style="mix-blend-mode: normal"><tspan x="0" dy="0">+</tspan></text></g></g></svg>